<?xml version="1.0" encoding="UTF-8" standalone="no"?>
<svg
   xmlns:osb="http://www.openswatchbook.org/uri/2009/osb"
   xmlns:dc="http://purl.org/dc/elements/1.1/"
   xmlns:cc="http://creativecommons.org/ns#"
   xmlns:rdf="http://www.w3.org/1999/02/22-rdf-syntax-ns#"
   xmlns:svg="http://www.w3.org/2000/svg"
   xmlns="http://www.w3.org/2000/svg"
   xmlns:xlink="http://www.w3.org/1999/xlink"
   version="1.1"
   id="svg2"
   viewBox="0 0 744.09448819 1052.3622047"
   height="297mm"
   width="210mm">
  <defs
     id="defs4">
    <linearGradient
       osb:paint="solid"
       id="linearGradient4263">
      <stop
         id="stop4265"
         offset="0"
         style="stop-color:#000000;stop-opacity:1;" />
    </linearGradient>
    <linearGradient
       gradientUnits="userSpaceOnUse"
       y2="507.30402"
       x2="373.6969"
       y1="507.30402"
       x1="337.34534"
       id="linearGradient4267"
       xlink:href="#linearGradient4263" />
  </defs>
  <metadata
     id="metadata7">
    <rdf:RDF>
      <cc:Work
         rdf:about="">
        <dc:format>image/svg+xml</dc:format>
        <dc:type
           rdf:resource="http://purl.org/dc/dcmitype/StillImage" />
        <dc:title></dc:title>
      </cc:Work>
    </rdf:RDF>
  </metadata>
  <g
     id="layer1">
    <g
       transform="translate(302.51121,445.21935)"
       id="Layer_1">
      <g
         id="g3404">
        <path
           style="fill:#d5635c"
           d="m 30.75,84.209 c -8.836,0 -16,-7.163 -16,-16 0,-8.836 7.164,-16 16,-16 8.837,0 16,7.164 16,16 0,8.837 -7.163,16 -16,16 z"
           id="path3406" />
        <path
           style="fill:#cb3c33"
           d="m 30.75,50.709 c 9.665,0 17.5,7.835 17.5,17.5 0,9.665 -7.835,17.5 -17.5,17.5 -9.665,0 -17.5,-7.835 -17.5,-17.5 0,-9.665 7.835,-17.5 17.5,-17.5 z m 0,3 c -8.008,0 -14.5,6.492 -14.5,14.5 0,8.009 6.492,14.5 14.5,14.5 8.008,0 14.5,-6.491 14.5,-14.5 0,-8.008 -6.492,-14.5 -14.5,-14.5 z"
           id="path3408" />
      </g>
      <g
         id="g3410">
        <path
           style="fill:#aa79c1"
           d="m 72.799,84.209 c -8.837,0 -16,-7.163 -16,-16 0,-8.836 7.163,-16 16,-16 8.836,0 16,7.164 16,16 0,8.837 -7.164,16 -16,16 z"
           id="path3412" />
        <path
           style="fill:#9558b2"
           d="m 72.799,50.709 c 9.665,0 17.5,7.835 17.5,17.5 0,9.665 -7.835,17.5 -17.5,17.5 -9.665,0 -17.5,-7.835 -17.5,-17.5 0,-9.665 7.835,-17.5 17.5,-17.5 z m 0,3 c -8.008,0 -14.5,6.492 -14.5,14.5 0,8.009 6.492,14.5 14.5,14.5 8.008,0 14.5,-6.491 14.5,-14.5 0,-8.008 -6.492,-14.5 -14.5,-14.5 z"
           id="path3414" />
      </g>
      <g
         id="g3416">
        <path
           style="fill:#60ad51"
           d="m 51.777,47.791 c -8.837,0 -16,-7.164 -16,-16 0,-8.837 7.163,-16 16,-16 8.836,0 16,7.163 16,16 0,8.836 -7.164,16 -16,16 z"
           id="path3418" />
        <path
           style="fill:#389826"
           d="m 51.776,14.291 c 9.666,0 17.501,7.835 17.501,17.5 0,9.665 -7.835,17.5 -17.5,17.5 -9.665,0 -17.5,-7.835 -17.5,-17.5 0,-9.665 7.835,-17.5 17.5,-17.5 z m 0,3 c -8.007,0 -14.499,6.492 -14.499,14.5 0,8.008 6.492,14.5 14.5,14.5 8.008,0 14.5,-6.492 14.5,-14.5 0,-8.008 -6.492,-14.5 -14.5,-14.5 z"
           id="path3420" />
      </g>
    </g>
    <text
       id="text3438"
       y="513.00049"
       x="324.46808"
       style="font-style:normal;font-variant:normal;font-weight:normal;font-stretch:normal;font-size:60px;line-height:125%;font-family:sans-serif;-inkscape-font-specification:'sans-serif, Normal';text-align:start;letter-spacing:0px;word-spacing:0px;writing-mode:lr-tb;text-anchor:start;opacity:0.906;fill:#1111d5;fill-opacity:1;stroke:#0bc0f3;stroke-width:1.5;stroke-linecap:round;stroke-linejoin:miter;stroke-miterlimit:4;stroke-dasharray:none;stroke-opacity:1;"
       xml:space="preserve"><tspan
         style="font-style:normal;font-variant:normal;font-weight:normal;font-stretch:normal;font-size:60px;line-height:125%;font-family:sans-serif;-inkscape-font-specification:'sans-serif, Normal';text-align:start;writing-mode:lr-tb;text-anchor:start;fill:#1111d5;fill-opacity:1;stroke:#0bc0f3;stroke-width:1.5;stroke-linecap:round;stroke-miterlimit:4;stroke-dasharray:none;stroke-opacity:1;"
         y="513.00049"
         x="324.46808"
         id="tspan3440">q)</tspan><tspan
         style="font-style:normal;font-variant:normal;font-weight:normal;font-stretch:normal;font-size:60px;line-height:125%;font-family:sans-serif;-inkscape-font-specification:'sans-serif, Normal';text-align:start;writing-mode:lr-tb;text-anchor:start;fill:#1111d5;fill-opacity:1;stroke:#0bc0f3;stroke-width:1.5;stroke-linecap:round;stroke-miterlimit:4;stroke-dasharray:none;stroke-opacity:1;"
         id="tspan4242"
         y="588.00049"
         x="324.46808" /></text>
  </g>
</svg>
